<svg xmlns="http://www.w3.org/2000/svg" viewBox="0 0 64 64" fill="none">
  <ellipse cx="32" cy="52" rx="30" ry="6" fill="#e0effb"/>
  <path d="M6 52c0-16 11.5-30 26-30s26 14 26 30" fill="#f0f7fd" stroke="#7ec8f0" stroke-width="2.5" stroke-linecap="round"/>
  <path d="M8 44h48" stroke="#c0ddf0" stroke-width="1.2" stroke-linecap="round"/>
  <path d="M12 36h40" stroke="#c0ddf0" stroke-width="1.2" stroke-linecap="round"/>
  <path d="M20 28h24" stroke="#c0ddf0" stroke-width="1.2" stroke-linecap="round"/>
  <path d="M20 44v8" stroke="#c0ddf0" stroke-width="1.2" stroke-linecap="round"/>
  <path d="M32 44v8" stroke="#c0ddf0" stroke-width="1.2" stroke-linecap="round"/>
  <path d="M44 44v8" stroke="#c0ddf0" stroke-width="1.2" stroke-linecap="round"/>
  <path d="M16 36v8" stroke="#c0ddf0" stroke-width="1.2" stroke-linecap="round"/>
  <path d="M26 36v8" stroke="#c0ddf0" stroke-width="1.2" stroke-linecap="round"/>
  <path d="M38 36v8" stroke="#c0ddf0" stroke-width="1.2" stroke-linecap="round"/>
  <path d="M48 36v8" stroke="#c0ddf0" stroke-width="1.2" stroke-linecap="round"/>
  <path d="M24 28v8" stroke="#c0ddf0" stroke-width="1.2" stroke-linecap="round"/>
  <path d="M32 28v8" stroke="#c0ddf0" stroke-width="1.2" stroke-linecap="round"/>
  <path d="M40 28v8" stroke="#c0ddf0" stroke-width="1.2" stroke-linecap="round"/>
  <path d="M26 52v-9a6 6 0 0 1 12 0v9" fill="#2d7eb5" stroke="#1e5a8a" stroke-width="2" stroke-linecap="round"/>
  <ellipse cx="32" cy="21.5" rx="5" ry="2.5" fill="white"/>
  <circle cx="12" cy="14" r="1.5" fill="#c0ddf0" opacity="0.7"/>
  <circle cx="50" cy="10" r="1.2" fill="#c0ddf0" opacity="0.6"/>
  <circle cx="54" cy="22" r="1" fill="#c0ddf0" opacity="0.5"/>
  <circle cx="8" cy="26" r="1" fill="#c0ddf0" opacity="0.5"/>
</svg>
